<?xml version="1.0" encoding="UTF-8"?><svg xmlns="http://www.w3.org/2000/svg" version="1.2" baseProfile="tiny" viewBox="0 0 24 24" width="24px" height="24px"><rect height="1" x="23" y="11" width="1" fill="#1a0002"/><rect x="23" y="16" width="1" height="1" fill="#050000"/><g fill="#000"><rect height="1" x="9" width="1"/><rect x="12" width="1" height="1"/><rect height="1" x="14" width="1"/><rect y="1" width="1" height="1" x="6"/><rect width="1" height="1" x="8" y="1"/><rect y="1" width="6" height="3" x="9"/><rect width="1" height="1" x="15" y="1"/><rect y="1" width="1" height="1" x="16"/><rect width="1" height="1" x="17" y="1"/><rect height="1" x="6" y="2" width="1"/><rect height="2" x="7" y="2" width="10"/><rect x="17" y="2" width="1" height="1"/><rect width="1" height="1" x="18" y="2"/><rect x="3" y="3" width="1" height="1"/><rect y="3" width="13" height="1" x="5"/><rect x="18" y="3" width="1" height="1"/><rect x="4" y="4" width="9" height="1"/><rect x="13" y="4" width="1" height="1"/><rect height="1" x="14" y="4" width="1"/><rect height="1" x="15" y="4" width="4"/><rect height="1" x="19" y="4" width="1"/><rect width="1" height="1" x="2" y="5"/><rect x="3" y="5" width="9" height="1"/><rect x="12" y="5" width="1" height="1"/><rect y="5" width="1" height="1" x="13"/><rect width="1" height="1" x="14" y="5"/><rect height="1" x="15" y="5" width="3"/><rect x="18" y="5" width="1" height="1"/><rect width="1" height="1" x="2" y="6"/><rect height="13" x="3" y="6" width="2"/><rect y="6" width="1" height="1" x="5"/><rect x="6" y="6" width="1" height="1"/><rect x="7" y="6" width="1" height="1"/><rect height="1" x="8" y="6" width="1"/><rect x="9" y="6" width="1" height="1"/><rect x="10" y="6" width="1" height="1"/><rect height="1" x="11" y="6" width="1"/><rect height="1" x="15" y="6" width="1"/><rect x="16" y="6" width="1" height="1"/><rect x="18" y="6" width="1" height="1"/><rect width="1" height="1" x="1" y="7"/><rect x="2" y="7" width="3" height="10"/><rect x="5" y="7" width="1" height="1"/><rect height="1" x="7" y="7" width="1"/><rect y="8" width="1" height="1"/><rect y="8" width="1" height="1" x="1"/><rect x="5" y="8" width="1" height="1"/><rect width="4" height="7" x="1" y="9"/><rect x="5" y="9" width="1" height="1"/><rect width="1" height="1" x="13" y="9"/><rect x="14" y="9" width="1" height="1"/><rect x="15" y="9" width="1" height="1"/><rect height="1" x="17" y="9" width="1"/><rect y="9" width="1" height="1" x="19"/><rect y="9" width="1" height="1" x="20"/><rect x="21" y="9" width="1" height="1"/><rect height="1" x="5" y="10" width="1"/><rect x="12" y="10" width="1" height="1"/><rect x="13" y="10" width="8" height="2"/><rect width="1" height="1" x="21" y="10"/><rect y="11" width="1" height="2"/><rect x="11" y="11" width="1" height="1"/><rect height="1" x="12" y="11" width="10"/><rect x="22" y="11" width="1" height="1"/><rect width="1" height="1" x="11" y="12"/><rect y="12" width="5" height="1" x="12"/><rect x="17" y="12" width="1" height="1"/><rect y="12" width="1" height="1" x="18"/><rect width="4" height="1" x="19" y="12"/><rect x="23" y="12" width="1" height="1"/><rect y="13" width="1" height="1"/><rect width="1" height="1" x="12" y="13"/><rect x="13" y="13" width="1" height="1"/><rect height="1" x="14" y="13" width="1"/><rect height="1" x="15" y="13" width="1"/><rect x="16" y="13" width="1" height="1"/><rect height="3" x="20" y="13" width="3"/><rect height="1" x="23" y="13" width="1"/><rect y="14" width="1" height="1"/><rect y="14" width="1" height="1" x="5"/><rect y="14" width="1" height="1" x="19"/><rect x="23" y="14" width="1" height="1"/><rect y="15" width="1" height="1" x="5"/><rect x="18" y="15" width="1" height="1"/><rect x="23" y="15" width="1" height="1"/><rect y="16" width="1" height="1" x="1"/><rect height="1" x="5" y="16" width="1"/><rect x="6" y="16" width="1" height="1"/><rect y="16" width="1" height="1" x="18"/><rect height="2" x="19" y="16" width="3"/><rect x="1" y="17" width="1" height="1"/><rect width="1" height="1" x="2" y="17"/><rect x="5" y="17" width="1" height="4"/><rect y="17" width="1" height="1" x="6"/><rect height="1" x="16" y="17" width="1"/><rect x="18" y="17" width="4" height="1"/><rect height="1" x="22" y="17" width="1"/><rect x="2" y="18" width="1" height="1"/><rect x="6" y="18" width="1" height="3"/><rect width="1" height="1" x="7" y="18"/><rect x="8" y="18" width="1" height="1"/><rect width="1" height="1" x="9" y="18"/><rect height="1" x="10" y="18" width="1"/><rect x="12" y="18" width="1" height="1"/><rect x="13" y="18" width="1" height="1"/><rect width="1" height="1" x="14" y="18"/><rect x="15" y="18" width="1" height="1"/><rect y="18" width="5" height="1" x="16"/><rect x="21" y="18" width="1" height="1"/><rect width="1" height="1" x="2" y="19"/><rect y="19" width="1" height="1" x="3"/><rect x="4" y="19" width="16" height="1"/><rect x="20" y="19" width="1" height="1"/><rect y="19" width="1" height="1" x="21"/><rect height="1" x="3" y="20" width="1"/><rect y="20" width="1" height="1" x="4"/><rect y="20" width="12" height="1" x="7"/><rect x="19" y="20" width="1" height="1"/><rect x="20" y="20" width="1" height="1"/><rect y="21" width="1" height="1" x="4"/><rect x="5" y="21" width="1" height="1"/><rect width="1" height="1" x="6" y="21"/><rect y="21" width="11" height="1" x="7"/><rect x="18" y="21" width="1" height="1"/><rect width="1" height="1" x="19" y="21"/><rect x="6" y="22" width="1" height="1"/><rect width="1" height="1" x="7" y="22"/><rect y="22" width="1" height="1" x="8"/><rect height="1" x="9" y="22" width="6"/><rect height="1" x="15" y="22" width="1"/><rect x="16" y="22" width="1" height="1"/><rect y="22" width="1" height="1" x="17"/><rect height="1" x="9" y="23" width="1"/><rect x="10" y="23" width="1" height="1"/><rect x="11" y="23" width="1" height="1"/><rect height="1" x="12" y="23" width="1"/></g><g fill="#020000"><rect x="10" width="1" height="1"/><rect x="13" width="1" height="1"/><rect width="1" height="1" x="5" y="2"/><rect x="11" y="10" width="1" height="1"/><rect width="1" height="1" x="5" y="13"/><rect width="1" height="1" x="7" y="17"/><rect height="1" x="13" y="23" width="1"/></g><g fill="#010000"><rect x="11" width="1" height="1"/><rect height="1" x="7" y="1" width="1"/><rect y="3" width="1" height="1" x="4"/><rect width="1" height="1" x="3" y="4"/><rect height="1" x="17" y="6" width="1"/><rect y="9" width="1" height="1"/><rect height="1" x="16" y="9" width="1"/><rect y="10" width="1" height="1"/><rect width="1" height="1" x="5" y="11"/><rect width="1" height="1" x="5" y="12"/><rect width="1" height="1" x="19" y="13"/><rect y="15" width="1" height="1" x="19"/><rect width="1" height="1" x="22" y="16"/><rect y="17" width="1" height="1" x="17"/><rect height="1" x="14" y="23" width="1"/></g><rect height="1" fill="#060101" x="1" y="6" width="1"/><g fill="#030000"><rect height="1" x="18" y="9" width="1"/><rect width="1" height="1" x="22" y="10"/><rect y="15" width="1" height="1"/></g></svg>